<svg xmlns="http://www.w3.org/2000/svg" xmlns:xlink="http://www.w3.org/1999/xlink" width="2000" zoomAndPan="magnify" viewBox="0 0 1500 1499.999933" height="2000" preserveAspectRatio="xMidYMid meet" version="1.0"><defs><clipPath id="16d526bc96"><path d="M 631 477 L 729 477 L 729 575 L 631 575 Z M 631 477 " clip-rule="nonzero"/></clipPath><clipPath id="6301d36c83"><path d="M 624.328125 525.683594 L 679.839844 470.167969 L 735.355469 525.683594 L 679.839844 581.199219 Z M 624.328125 525.683594 " clip-rule="nonzero"/></clipPath><clipPath id="3493e848e9"><path d="M 635.996094 514.015625 L 668.175781 481.835938 C 674.617188 475.394531 685.066406 475.394531 691.507812 481.835938 L 723.6875 514.015625 C 730.132812 520.460938 730.132812 530.90625 723.6875 537.351562 L 691.507812 569.53125 C 685.066406 575.976562 674.617188 575.976562 668.175781 569.53125 L 635.996094 537.351562 C 629.550781 530.90625 629.550781 520.460938 635.996094 514.015625 Z M 635.996094 514.015625 " clip-rule="nonzero"/></clipPath><clipPath id="b9413fcdb2"><path d="M 0 0 L 98 0 L 98 98 L 0 98 Z M 0 0 " clip-rule="nonzero"/></clipPath><clipPath id="cc278ddf85"><path d="M -6.671875 48.683594 L 48.839844 -6.832031 L 104.355469 48.683594 L 48.839844 104.199219 Z M -6.671875 48.683594 " clip-rule="nonzero"/></clipPath><clipPath id="7c54a56255"><path d="M 4.996094 37.015625 L 37.175781 4.835938 C 43.617188 -1.605469 54.066406 -1.605469 60.507812 4.835938 L 92.6875 37.015625 C 99.132812 43.460938 99.132812 53.90625 92.6875 60.351562 L 60.507812 92.53125 C 54.066406 98.976562 43.617188 98.976562 37.175781 92.53125 L 4.996094 60.351562 C -1.449219 53.90625 -1.449219 43.460938 4.996094 37.015625 Z M 4.996094 37.015625 " clip-rule="nonzero"/></clipPath><clipPath id="84fcb1dd10"><rect x="0" width="98" y="0" height="98"/></clipPath><clipPath id="1b20b28547"><path d="M 646 332 L 714 332 L 714 400 L 646 400 Z M 646 332 " clip-rule="nonzero"/></clipPath><clipPath id="9e1375a4e9"><path d="M 639.585938 366.234375 L 679.839844 325.976562 L 720.097656 366.234375 L 679.839844 406.488281 Z M 639.585938 366.234375 " clip-rule="nonzero"/></clipPath><clipPath id="b85dbb339d"><path d="M 651.25 354.566406 L 668.171875 337.644531 C 674.617188 331.199219 685.0625 331.199219 691.507812 337.644531 L 708.429688 354.566406 C 714.875 361.011719 714.875 371.457031 708.429688 377.902344 L 691.507812 394.824219 C 685.0625 401.265625 674.617188 401.265625 668.171875 394.824219 L 651.25 377.902344 C 644.808594 371.457031 644.808594 361.011719 651.25 354.566406 Z M 651.25 354.566406 " clip-rule="nonzero"/></clipPath><clipPath id="fff3aa5f37"><path d="M 0 0 L 68 0 L 68 68 L 0 68 Z M 0 0 " clip-rule="nonzero"/></clipPath><clipPath id="a5941c096c"><path d="M -6.414062 34.234375 L 33.839844 -6.023438 L 74.097656 34.234375 L 33.839844 74.488281 Z M -6.414062 34.234375 " clip-rule="nonzero"/></clipPath><clipPath id="0d668f5c35"><path d="M 5.25 22.566406 L 22.171875 5.644531 C 28.617188 -0.800781 39.0625 -0.800781 45.507812 5.644531 L 62.429688 22.566406 C 68.875 29.011719 68.875 39.457031 62.429688 45.902344 L 45.507812 62.824219 C 39.0625 69.265625 28.617188 69.265625 22.171875 62.824219 L 5.25 45.902344 C -1.191406 39.457031 -1.191406 29.011719 5.25 22.566406 Z M 5.25 22.566406 " clip-rule="nonzero"/></clipPath><clipPath id="03ddb0c921"><rect x="0" width="68" y="0" height="68"/></clipPath><clipPath id="ae12543ad3"><path d="M 154 774 L 221 774 L 221 842 L 154 842 Z M 154 774 " clip-rule="nonzero"/></clipPath><clipPath id="a0c61fb23e"><path d="M 147.21875 808.382812 L 187.472656 768.128906 L 227.730469 808.382812 L 187.472656 848.640625 Z M 147.21875 808.382812 " clip-rule="nonzero"/></clipPath><clipPath id="f9f76a9e3d"><path d="M 158.882812 796.71875 L 175.804688 779.796875 C 182.25 773.351562 192.695312 773.351562 199.140625 779.796875 L 216.0625 796.71875 C 222.507812 803.160156 222.507812 813.609375 216.0625 820.050781 L 199.140625 836.972656 C 192.695312 843.417969 182.25 843.417969 175.804688 836.972656 L 158.882812 820.050781 C 152.441406 813.609375 152.441406 803.160156 158.882812 796.71875 Z M 158.882812 796.71875 " clip-rule="nonzero"/></clipPath><clipPath id="0ddeb4a8d7"><path d="M 0 0 L 67 0 L 67 68 L 0 68 Z M 0 0 " clip-rule="nonzero"/></clipPath><clipPath id="4e3dcac7f7"><path d="M -6.78125 34.382812 L 33.472656 -5.871094 L 73.730469 34.382812 L 33.472656 74.640625 Z M -6.78125 34.382812 " clip-rule="nonzero"/></clipPath><clipPath id="390cb6410c"><path d="M 4.882812 22.71875 L 21.804688 5.796875 C 28.25 -0.648438 38.695312 -0.648438 45.140625 5.796875 L 62.0625 22.71875 C 68.507812 29.160156 68.507812 39.609375 62.0625 46.050781 L 45.140625 62.972656 C 38.695312 69.417969 28.25 69.417969 21.804688 62.972656 L 4.882812 46.050781 C -1.558594 39.609375 -1.558594 29.160156 4.882812 22.71875 Z M 4.882812 22.71875 " clip-rule="nonzero"/></clipPath><clipPath id="a524d83090"><rect x="0" width="67" y="0" height="68"/></clipPath><clipPath id="3b819509b9"><path d="M 787 1091 L 854 1091 L 854 1159 L 787 1159 Z M 787 1091 " clip-rule="nonzero"/></clipPath><clipPath id="0221d19a62"><path d="M 780.167969 1124.710938 L 820.421875 1084.457031 L 860.679688 1124.710938 L 820.421875 1164.96875 Z M 780.167969 1124.710938 " clip-rule="nonzero"/></clipPath><clipPath id="499878ce23"><path d="M 791.832031 1113.046875 L 808.753906 1096.125 C 815.199219 1089.679688 825.644531 1089.679688 832.089844 1096.125 L 849.011719 1113.046875 C 855.457031 1119.488281 855.457031 1129.9375 849.011719 1136.378906 L 832.089844 1153.300781 C 825.644531 1159.746094 815.199219 1159.746094 808.753906 1153.300781 L 791.832031 1136.378906 C 785.390625 1129.9375 785.390625 1119.488281 791.832031 1113.046875 Z M 791.832031 1113.046875 " clip-rule="nonzero"/></clipPath><clipPath id="a756d0b48e"><path d="M 0 0 L 67 0 L 67 68 L 0 68 Z M 0 0 " clip-rule="nonzero"/></clipPath><clipPath id="8fc405afb8"><path d="M -6.832031 33.710938 L 33.421875 -6.542969 L 73.679688 33.710938 L 33.421875 73.96875 Z M -6.832031 33.710938 " clip-rule="nonzero"/></clipPath><clipPath id="ccb7330413"><path d="M 4.832031 22.046875 L 21.753906 5.125 C 28.199219 -1.320312 38.644531 -1.320312 45.089844 5.125 L 62.011719 22.046875 C 68.457031 28.488281 68.457031 38.9375 62.011719 45.378906 L 45.089844 62.300781 C 38.644531 68.746094 28.199219 68.746094 21.753906 62.300781 L 4.832031 45.378906 C -1.609375 38.9375 -1.609375 28.488281 4.832031 22.046875 Z M 4.832031 22.046875 " clip-rule="nonzero"/></clipPath><clipPath id="f81c7ab125"><rect x="0" width="67" y="0" height="68"/></clipPath><clipPath id="5138dcb72d"><path d="M 951 1182 L 1019 1182 L 1019 1250 L 951 1250 Z M 951 1182 " clip-rule="nonzero"/></clipPath><clipPath id="f502bb259e"><path d="M 944.75 1215.925781 L 985.003906 1175.667969 L 1025.261719 1215.925781 L 985.003906 1256.179688 Z M 944.75 1215.925781 " clip-rule="nonzero"/></clipPath><clipPath id="e51031dfff"><path d="M 956.414062 1204.257812 L 973.335938 1187.335938 C 979.78125 1180.890625 990.226562 1180.890625 996.671875 1187.335938 L 1013.59375 1204.257812 C 1020.039062 1210.699219 1020.039062 1221.148438 1013.59375 1227.59375 L 996.671875 1244.511719 C 990.226562 1250.957031 979.78125 1250.957031 973.335938 1244.511719 L 956.414062 1227.59375 C 949.972656 1221.148438 949.972656 1210.699219 956.414062 1204.257812 Z M 956.414062 1204.257812 " clip-rule="nonzero"/></clipPath><clipPath id="5ec7d71c23"><path d="M 0 0 L 68 0 L 68 68 L 0 68 Z M 0 0 " clip-rule="nonzero"/></clipPath><clipPath id="aeb9b27ea1"><path d="M -6.25 33.925781 L 34.003906 -6.332031 L 74.261719 33.925781 L 34.003906 74.179688 Z M -6.25 33.925781 " clip-rule="nonzero"/></clipPath><clipPath id="94db69d874"><path d="M 5.414062 22.257812 L 22.335938 5.335938 C 28.78125 -1.109375 39.226562 -1.109375 45.671875 5.335938 L 62.59375 22.257812 C 69.039062 28.699219 69.039062 39.148438 62.59375 45.59375 L 45.671875 62.511719 C 39.226562 68.957031 28.78125 68.957031 22.335938 62.511719 L 5.414062 45.59375 C -1.027344 39.148438 -1.027344 28.699219 5.414062 22.257812 Z M 5.414062 22.257812 " clip-rule="nonzero"/></clipPath><clipPath id="2a21434ce8"><rect x="0" width="68" y="0" height="68"/></clipPath><clipPath id="415b480ff4"><path d="M 1113 241 L 1181 241 L 1181 309 L 1113 309 Z M 1113 241 " clip-rule="nonzero"/></clipPath><clipPath id="c12ecbc491"><path d="M 1106.984375 275.074219 L 1147.238281 234.816406 L 1187.496094 275.074219 L 1147.238281 315.332031 Z M 1106.984375 275.074219 " clip-rule="nonzero"/></clipPath><clipPath id="e1631a065a"><path d="M 1118.652344 263.40625 L 1135.570312 246.484375 C 1142.015625 240.042969 1152.464844 240.042969 1158.90625 246.484375 L 1175.828125 263.40625 C 1182.273438 269.851562 1182.273438 280.296875 1175.828125 286.742188 L 1158.90625 303.664062 C 1152.464844 310.105469 1142.015625 310.105469 1135.570312 303.664062 L 1118.652344 286.742188 C 1112.207031 280.296875 1112.207031 269.851562 1118.652344 263.40625 Z M 1118.652344 263.40625 " clip-rule="nonzero"/></clipPath><clipPath id="686f900644"><path d="M 0 0 L 68 0 L 68 68 L 0 68 Z M 0 0 " clip-rule="nonzero"/></clipPath><clipPath id="17bf067c2c"><path d="M -6.015625 34.074219 L 34.238281 -6.183594 L 74.496094 34.074219 L 34.238281 74.332031 Z M -6.015625 34.074219 " clip-rule="nonzero"/></clipPath><clipPath id="ce74c5b49d"><path d="M 5.652344 22.40625 L 22.570312 5.484375 C 29.015625 -0.957031 39.464844 -0.957031 45.90625 5.484375 L 62.828125 22.40625 C 69.273438 28.851562 69.273438 39.296875 62.828125 45.742188 L 45.90625 62.664062 C 39.464844 69.105469 29.015625 69.105469 22.570312 62.664062 L 5.652344 45.742188 C -0.792969 39.296875 -0.792969 28.851562 5.652344 22.40625 Z M 5.652344 22.40625 " clip-rule="nonzero"/></clipPath><clipPath id="afcc76d96e"><rect x="0" width="68" y="0" height="68"/></clipPath><clipPath id="863f2b12ae"><path d="M 771 925 L 870 925 L 870 1024 L 771 1024 Z M 771 925 " clip-rule="nonzero"/></clipPath><clipPath id="8c62f32382"><path d="M 764.910156 974.582031 L 820.421875 919.066406 L 875.9375 974.582031 L 820.421875 1030.097656 Z M 764.910156 974.582031 " clip-rule="nonzero"/></clipPath><clipPath id="630c2abe7a"><path d="M 776.578125 962.914062 L 808.757812 930.734375 C 815.199219 924.292969 825.648438 924.292969 832.089844 930.734375 L 864.269531 962.914062 C 870.714844 969.359375 870.714844 979.804688 864.269531 986.25 L 832.089844 1018.429688 C 825.648438 1024.871094 815.199219 1024.871094 808.757812 1018.429688 L 776.578125 986.25 C 770.132812 979.804688 770.132812 969.359375 776.578125 962.914062 Z M 776.578125 962.914062 " clip-rule="nonzero"/></clipPath><clipPath id="54c60fcfcc"><path d="M 0 0 L 99 0 L 99 99 L 0 99 Z M 0 0 " clip-rule="nonzero"/></clipPath><clipPath id="d707d3b2ee"><path d="M -6.089844 49.582031 L 49.421875 -5.933594 L 104.9375 49.582031 L 49.421875 105.097656 Z M -6.089844 49.582031 " clip-rule="nonzero"/></clipPath><clipPath id="794ca1462c"><path d="M 5.578125 37.914062 L 37.757812 5.734375 C 44.199219 -0.707031 54.648438 -0.707031 61.089844 5.734375 L 93.269531 37.914062 C 99.714844 44.359375 99.714844 54.804688 93.269531 61.25 L 61.089844 93.429688 C 54.648438 99.871094 44.199219 99.871094 37.757812 93.429688 L 5.578125 61.25 C -0.867188 54.804688 -0.867188 44.359375 5.578125 37.914062 Z M 5.578125 37.914062 " clip-rule="nonzero"/></clipPath><clipPath id="b5555ee5f3"><rect x="0" width="99" y="0" height="99"/></clipPath><clipPath id="c42e3d0431"><path d="M 444 559 L 587 559 L 587 702 L 444 702 Z M 444 559 " clip-rule="nonzero"/></clipPath><clipPath id="b48896dd4e"><path d="M 593.625 630.4375 L 515.847656 708.214844 L 438.070312 630.4375 L 515.847656 552.664062 Z M 593.625 630.4375 " clip-rule="nonzero"/></clipPath><clipPath id="b839419143"><path d="M 581.957031 642.105469 L 527.515625 696.546875 C 521.070312 702.992188 510.625 702.992188 504.179688 696.546875 L 449.738281 642.105469 C 443.292969 635.664062 443.292969 625.214844 449.738281 618.769531 L 504.179688 564.328125 C 510.625 557.886719 521.070312 557.886719 527.515625 564.328125 L 581.957031 618.769531 C 588.398438 625.214844 588.398438 635.664062 581.957031 642.105469 Z M 581.957031 642.105469 " clip-rule="nonzero"/></clipPath><clipPath id="021d18d9bb"><path d="M 0 0 L 143 0 L 143 143 L 0 143 Z M 0 0 " clip-rule="nonzero"/></clipPath><clipPath id="e11a56c258"><path d="M 149.625 71.4375 L 71.847656 149.214844 L -5.929688 71.4375 L 71.847656 -6.335938 Z M 149.625 71.4375 " clip-rule="nonzero"/></clipPath><clipPath id="a974e49296"><path d="M 137.957031 83.105469 L 83.515625 137.546875 C 77.070312 143.992188 66.625 143.992188 60.179688 137.546875 L 5.738281 83.105469 C -0.707031 76.664062 -0.707031 66.214844 5.738281 59.769531 L 60.179688 5.328125 C 66.625 -1.113281 77.070312 -1.113281 83.515625 5.328125 L 137.957031 59.769531 C 144.398438 66.214844 144.398438 76.664062 137.957031 83.105469 Z M 137.957031 83.105469 " clip-rule="nonzero"/></clipPath><clipPath id="cf028944b3"><rect x="0" width="143" y="0" height="143"/></clipPath><clipPath id="fe4f9a7cd5"><path d="M 482 241 L 550 241 L 550 309 L 482 309 Z M 482 241 " clip-rule="nonzero"/></clipPath><clipPath id="daedba40d3"><path d="M 475.589844 275.074219 L 515.847656 234.816406 L 556.105469 275.074219 L 515.847656 315.332031 Z M 475.589844 275.074219 " clip-rule="nonzero"/></clipPath><clipPath id="e5a5d0294f"><path d="M 487.257812 263.40625 L 504.179688 246.484375 C 510.625 240.042969 521.070312 240.042969 527.515625 246.484375 L 544.4375 263.40625 C 550.878906 269.851562 550.878906 280.296875 544.4375 286.742188 L 527.515625 303.664062 C 521.070312 310.105469 510.625 310.105469 504.179688 303.664062 L 487.257812 286.742188 C 480.816406 280.296875 480.816406 269.851562 487.257812 263.40625 Z M 487.257812 263.40625 " clip-rule="nonzero"/></clipPath><clipPath id="0259b16abb"><path d="M 0 0 L 68 0 L 68 68 L 0 68 Z M 0 0 " clip-rule="nonzero"/></clipPath><clipPath id="ab7c51359a"><path d="M -6.410156 34.074219 L 33.847656 -6.183594 L 74.105469 34.074219 L 33.847656 74.332031 Z M -6.410156 34.074219 " clip-rule="nonzero"/></clipPath><clipPath id="a9bf999300"><path d="M 5.257812 22.40625 L 22.179688 5.484375 C 28.625 -0.957031 39.070312 -0.957031 45.515625 5.484375 L 62.4375 22.40625 C 68.878906 28.851562 68.878906 39.296875 62.4375 45.742188 L 45.515625 62.664062 C 39.070312 69.105469 28.625 69.105469 22.179688 62.664062 L 5.257812 45.742188 C -1.183594 39.296875 -1.183594 28.851562 5.257812 22.40625 Z M 5.257812 22.40625 " clip-rule="nonzero"/></clipPath><clipPath id="e263d49a2c"><rect x="0" width="68" y="0" height="68"/></clipPath><clipPath id="5629853af4"><path d="M 316 1182 L 384 1182 L 384 1250 L 316 1250 Z M 316 1182 " clip-rule="nonzero"/></clipPath><clipPath id="1d21ae2452"><path d="M 310.097656 1215.925781 L 350.355469 1175.667969 L 390.609375 1215.925781 L 350.355469 1256.179688 Z M 310.097656 1215.925781 " clip-rule="nonzero"/></clipPath><clipPath id="eda825eccc"><path d="M 321.765625 1204.257812 L 338.6875 1187.335938 C 345.132812 1180.890625 355.578125 1180.890625 362.023438 1187.335938 L 378.945312 1204.257812 C 385.386719 1210.699219 385.386719 1221.148438 378.945312 1227.59375 L 362.023438 1244.511719 C 355.578125 1250.957031 345.132812 1250.957031 338.6875 1244.511719 L 321.765625 1227.59375 C 315.320312 1221.148438 315.320312 1210.699219 321.765625 1204.257812 Z M 321.765625 1204.257812 " clip-rule="nonzero"/></clipPath><clipPath id="2703af735e"><path d="M 0 0 L 68 0 L 68 68 L 0 68 Z M 0 0 " clip-rule="nonzero"/></clipPath><clipPath id="035897c38e"><path d="M -5.902344 33.925781 L 34.355469 -6.332031 L 74.609375 33.925781 L 34.355469 74.179688 Z M -5.902344 33.925781 " clip-rule="nonzero"/></clipPath><clipPath id="b5175ae426"><path d="M 5.765625 22.257812 L 22.6875 5.335938 C 29.132812 -1.109375 39.578125 -1.109375 46.023438 5.335938 L 62.945312 22.257812 C 69.386719 28.699219 69.386719 39.148438 62.945312 45.59375 L 46.023438 62.511719 C 39.578125 68.957031 29.132812 68.957031 22.6875 62.511719 L 5.765625 45.59375 C -0.679688 39.148438 -0.679688 28.699219 5.765625 22.257812 Z M 5.765625 22.257812 " clip-rule="nonzero"/></clipPath><clipPath id="6cb3b6c85c"><rect x="0" width="68" y="0" height="68"/></clipPath><clipPath id="d0b7c12b8b"><path d="M 1279 658 L 1347 658 L 1347 726 L 1279 726 Z M 1279 658 " clip-rule="nonzero"/></clipPath><clipPath id="448e460a2c"><path d="M 1272.578125 692.308594 L 1312.832031 652.054688 L 1353.089844 692.308594 L 1312.832031 732.566406 Z M 1272.578125 692.308594 " clip-rule="nonzero"/></clipPath><clipPath id="2fbee6a0f9"><path d="M 1284.246094 680.640625 L 1301.167969 663.71875 C 1307.609375 657.277344 1318.058594 657.277344 1324.5 663.71875 L 1341.421875 680.640625 C 1347.867188 687.085938 1347.867188 697.535156 1341.421875 703.976562 L 1324.5 720.898438 C 1318.058594 727.34375 1307.609375 727.34375 1301.167969 720.898438 L 1284.246094 703.976562 C 1277.800781 697.535156 1277.800781 687.085938 1284.246094 680.640625 Z M 1284.246094 680.640625 " clip-rule="nonzero"/></clipPath><clipPath id="02106c70ee"><path d="M 0 0 L 68 0 L 68 68 L 0 68 Z M 0 0 " clip-rule="nonzero"/></clipPath><clipPath id="7fd673ca3f"><path d="M -6.421875 34.308594 L 33.832031 -5.945312 L 74.089844 34.308594 L 33.832031 74.566406 Z M -6.421875 34.308594 " clip-rule="nonzero"/></clipPath><clipPath id="2bdb6c829a"><path d="M 5.246094 22.640625 L 22.167969 5.71875 C 28.609375 -0.722656 39.058594 -0.722656 45.5 5.71875 L 62.421875 22.640625 C 68.867188 29.085938 68.867188 39.535156 62.421875 45.976562 L 45.5 62.898438 C 39.058594 69.34375 28.609375 69.34375 22.167969 62.898438 L 5.246094 45.976562 C -1.199219 39.535156 -1.199219 29.085938 5.246094 22.640625 Z M 5.246094 22.640625 " clip-rule="nonzero"/></clipPath><clipPath id="86eb4c9ec3"><rect x="0" width="68" y="0" height="68"/></clipPath><clipPath id="1bf99ab423"><path d="M 1102 380 L 1200 380 L 1200 478 L 1102 478 Z M 1102 380 " clip-rule="nonzero"/></clipPath><clipPath id="7735dedbcf"><path d="M 1095.734375 429.210938 L 1151.25 373.695312 L 1206.761719 429.210938 L 1151.25 484.726562 Z M 1095.734375 429.210938 " clip-rule="nonzero"/></clipPath><clipPath id="15f78c5f7c"><path d="M 1107.402344 417.542969 L 1139.582031 385.363281 C 1146.023438 378.921875 1156.472656 378.921875 1162.914062 385.363281 L 1195.097656 417.542969 C 1201.539062 423.988281 1201.539062 434.433594 1195.097656 440.878906 L 1162.914062 473.058594 C 1156.472656 479.5 1146.023438 479.5 1139.582031 473.058594 L 1107.402344 440.878906 C 1100.957031 434.433594 1100.957031 423.988281 1107.402344 417.542969 Z M 1107.402344 417.542969 " clip-rule="nonzero"/></clipPath><clipPath id="9749a4674d"><path d="M 0 0 L 98 0 L 98 98 L 0 98 Z M 0 0 " clip-rule="nonzero"/></clipPath><clipPath id="637579bbdb"><path d="M -6.265625 49.210938 L 49.25 -6.304688 L 104.761719 49.210938 L 49.25 104.726562 Z M -6.265625 49.210938 " clip-rule="nonzero"/></clipPath><clipPath id="d0656461ec"><path d="M 5.402344 37.542969 L 37.582031 5.363281 C 44.023438 -1.078125 54.472656 -1.078125 60.914062 5.363281 L 93.097656 37.542969 C 99.539062 43.988281 99.539062 54.433594 93.097656 60.878906 L 60.914062 93.058594 C 54.472656 99.5 44.023438 99.5 37.582031 93.058594 L 5.402344 60.878906 C -1.042969 54.433594 -1.042969 43.988281 5.402344 37.542969 Z M 5.402344 37.542969 " clip-rule="nonzero"/></clipPath><clipPath id="3ef6ec45d5"><rect x="0" width="98" y="0" height="98"/></clipPath><clipPath id="b1fd01cd37"><path d="M 914 811 L 1056 811 L 1056 954 L 914 954 Z M 914 811 " clip-rule="nonzero"/></clipPath><clipPath id="669f10c530"><path d="M 1062.78125 882.558594 L 985.003906 960.335938 L 907.226562 882.558594 L 985.003906 804.78125 Z M 1062.78125 882.558594 " clip-rule="nonzero"/></clipPath><clipPath id="433004ba9c"><path d="M 1051.113281 894.226562 L 996.671875 948.667969 C 990.226562 955.109375 979.78125 955.109375 973.335938 948.667969 L 918.894531 894.226562 C 912.453125 887.78125 912.453125 877.335938 918.894531 870.890625 L 973.335938 816.449219 C 979.78125 810.003906 990.226562 810.003906 996.671875 816.449219 L 1051.113281 870.890625 C 1057.558594 877.335938 1057.558594 887.78125 1051.113281 894.226562 Z M 1051.113281 894.226562 " clip-rule="nonzero"/></clipPath><clipPath id="e64cfabe7f"><path d="M 0 0 L 142 0 L 142 143 L 0 143 Z M 0 0 " clip-rule="nonzero"/></clipPath><clipPath id="68f7f0d434"><path d="M 148.78125 71.558594 L 71.003906 149.335938 L -6.773438 71.558594 L 71.003906 -6.21875 Z M 148.78125 71.558594 " clip-rule="nonzero"/></clipPath><clipPath id="24b485555c"><path d="M 137.113281 83.226562 L 82.671875 137.667969 C 76.226562 144.109375 65.78125 144.109375 59.335938 137.667969 L 4.894531 83.226562 C -1.546875 76.78125 -1.546875 66.335938 4.894531 59.890625 L 59.335938 5.449219 C 65.78125 -0.996094 76.226562 -0.996094 82.671875 5.449219 L 137.113281 59.890625 C 143.558594 66.335938 143.558594 76.78125 137.113281 83.226562 Z M 137.113281 83.226562 " clip-rule="nonzero"/></clipPath><clipPath id="0537fa40c8"><rect x="0" width="142" y="0" height="143"/></clipPath><clipPath id="77cb81bb50"><path d="M 301 1020 L 400 1020 L 400 1118 L 301 1118 Z M 301 1020 " clip-rule="nonzero"/></clipPath><clipPath id="054926f192"><path d="M 294.839844 1069.195312 L 350.355469 1013.679688 L 405.871094 1069.195312 L 350.355469 1124.710938 Z M 294.839844 1069.195312 " clip-rule="nonzero"/></clipPath><clipPath id="406a0ada21"><path d="M 306.507812 1057.527344 L 338.6875 1025.347656 C 345.132812 1018.90625 355.578125 1018.90625 362.023438 1025.347656 L 394.203125 1057.527344 C 400.644531 1063.972656 400.644531 1074.417969 394.203125 1080.863281 L 362.023438 1113.042969 C 355.578125 1119.488281 345.132812 1119.488281 338.6875 1113.042969 L 306.507812 1080.863281 C 300.066406 1074.417969 300.066406 1063.972656 306.507812 1057.527344 Z M 306.507812 1057.527344 " clip-rule="nonzero"/></clipPath><clipPath id="32f240b765"><path d="M 0 0 L 99 0 L 99 98 L 0 98 Z M 0 0 " clip-rule="nonzero"/></clipPath><clipPath id="38c1bd2cd0"><path d="M -6.160156 49.195312 L 49.355469 -6.320312 L 104.871094 49.195312 L 49.355469 104.710938 Z M -6.160156 49.195312 " clip-rule="nonzero"/></clipPath><clipPath id="4c3e7f14e5"><path d="M 5.507812 37.527344 L 37.6875 5.347656 C 44.132812 -1.09375 54.578125 -1.09375 61.023438 5.347656 L 93.203125 37.527344 C 99.644531 43.972656 99.644531 54.417969 93.203125 60.863281 L 61.023438 93.042969 C 54.578125 99.488281 44.132812 99.488281 37.6875 93.042969 L 5.507812 60.863281 C -0.933594 54.417969 -0.933594 43.972656 5.507812 37.527344 Z M 5.507812 37.527344 " clip-rule="nonzero"/></clipPath><clipPath id="c1f584c4f7"><rect x="0" width="99" y="0" height="98"/></clipPath><clipPath id="e6f921497f"><path d="M 1080 535 L 1223 535 L 1223 678 L 1080 678 Z M 1080 535 " clip-rule="nonzero"/></clipPath><clipPath id="3c1caa9274"><path d="M 1229.023438 606.386719 L 1151.246094 684.164062 L 1073.472656 606.386719 L 1151.246094 528.609375 Z M 1229.023438 606.386719 " clip-rule="nonzero"/></clipPath><clipPath id="f51512efac"><path d="M 1217.355469 618.054688 L 1162.914062 672.496094 C 1156.472656 678.941406 1146.023438 678.941406 1139.578125 672.496094 L 1085.136719 618.054688 C 1078.695312 611.609375 1078.695312 601.164062 1085.136719 594.71875 L 1139.578125 540.277344 C 1146.023438 533.835938 1156.472656 533.835938 1162.914062 540.277344 L 1217.355469 594.71875 C 1223.800781 601.164062 1223.800781 611.609375 1217.355469 618.054688 Z M 1217.355469 618.054688 " clip-rule="nonzero"/></clipPath><clipPath id="e4f01b392d"><path d="M 0 0 L 143 0 L 143 143 L 0 143 Z M 0 0 " clip-rule="nonzero"/></clipPath><clipPath id="2065620347"><path d="M 149.023438 71.386719 L 71.246094 149.164062 L -6.527344 71.386719 L 71.246094 -6.390625 Z M 149.023438 71.386719 " clip-rule="nonzero"/></clipPath><clipPath id="3a1677d3c8"><path d="M 137.355469 83.054688 L 82.914062 137.496094 C 76.472656 143.941406 66.023438 143.941406 59.578125 137.496094 L 5.136719 83.054688 C -1.304688 76.609375 -1.304688 66.164062 5.136719 59.71875 L 59.578125 5.277344 C 66.023438 -1.164062 76.472656 -1.164062 82.914062 5.277344 L 137.355469 59.71875 C 143.800781 66.164062 143.800781 76.609375 137.355469 83.054688 Z M 137.355469 83.054688 " clip-rule="nonzero"/></clipPath><clipPath id="5b07dc0e8c"><rect x="0" width="143" y="0" height="143"/></clipPath><clipPath id="1728e4820c"><path d="M 279 821 L 422 821 L 422 963 L 279 963 Z M 279 821 " clip-rule="nonzero"/></clipPath><clipPath id="80bd7c0628"><path d="M 428.128906 892.023438 L 350.355469 969.796875 L 272.578125 892.023438 L 350.355469 814.246094 Z M 428.128906 892.023438 " clip-rule="nonzero"/></clipPath><clipPath id="775909e322"><path d="M 416.464844 903.6875 L 362.019531 958.128906 C 355.578125 964.574219 345.128906 964.574219 338.6875 958.128906 L 284.246094 903.6875 C 277.800781 897.246094 277.800781 886.796875 284.246094 880.355469 L 338.6875 825.914062 C 345.128906 819.46875 355.578125 819.46875 362.019531 825.914062 L 416.464844 880.355469 C 422.90625 886.796875 422.90625 897.246094 416.464844 903.6875 Z M 416.464844 903.6875 " clip-rule="nonzero"/></clipPath><clipPath id="ee3cc891d7"><path d="M 0 0 L 143 0 L 143 142 L 0 142 Z M 0 0 " clip-rule="nonzero"/></clipPath><clipPath id="fb7e7680cc"><path d="M 149.128906 71.023438 L 71.355469 148.796875 L -6.421875 71.023438 L 71.355469 -6.753906 Z M 149.128906 71.023438 " clip-rule="nonzero"/></clipPath><clipPath id="76d4cee497"><path d="M 137.464844 82.6875 L 83.019531 137.128906 C 76.578125 143.574219 66.128906 143.574219 59.6875 137.128906 L 5.246094 82.6875 C -1.199219 76.246094 -1.199219 65.796875 5.246094 59.355469 L 59.6875 4.914062 C 66.128906 -1.53125 76.578125 -1.53125 83.019531 4.914062 L 137.464844 59.355469 C 143.90625 65.796875 143.90625 76.246094 137.464844 82.6875 Z M 137.464844 82.6875 " clip-rule="nonzero"/></clipPath><clipPath id="bcca0ca915"><rect x="0" width="143" y="0" height="142"/></clipPath></defs><path stroke-linecap="butt" transform="matrix(0.000000001309, -0.75, 0.75, 0.000000001309, 332.728805, 962.584049)" fill="none" stroke-linejoin="miter" d="M 152.747495 23.502221 L 290.11209 23.50222 " stroke="#424242" stroke-width="47" stroke-opacity="1" stroke-miterlimit="4"/><path stroke-linecap="round" transform="matrix(0.000000001309, -0.75, 0.75, 0.000000001309, 332.728805, 962.584049)" fill-opacity="1" fill="#424242" fill-rule="nonzero" stroke-linejoin="round" d="M 23.497484 23.502221 L 93.99749 -46.997785 L 164.497496 23.50222 L 93.99749 94.002227 Z M 23.497484 23.502221 " stroke="#424242" stroke-width="47" stroke-opacity="1" stroke-miterlimit="4"/><path stroke-linecap="round" transform="matrix(0.000000001309, -0.75, 0.75, 0.000000001309, 332.728805, 962.584049)" fill-opacity="1" fill="#424242" fill-rule="nonzero" stroke-linejoin="round" d="M 419.362102 23.50222 L 348.862095 -46.997786 L 278.362089 23.50222 L 348.862096 94.002226 Z M 419.362102 23.50222 " stroke="#424242" stroke-width="47" stroke-opacity="1" stroke-miterlimit="4"/><path stroke-linecap="butt" transform="matrix(0.000000001309, -0.75, 0.75, 0.000000001309, 332.728805, 770.358658)" fill="none" stroke-linejoin="miter" d="M 152.749057 23.502221 L 290.113652 23.50222 " stroke="#424242" stroke-width="47" stroke-opacity="1" stroke-miterlimit="4"/><path stroke-linecap="round" transform="matrix(0.000000001309, -0.75, 0.75, 0.000000001309, 332.728805, 770.358658)" fill-opacity="1" fill="#424242" fill-rule="nonzero" stroke-linejoin="round" d="M 23.499046 23.502221 L 93.999052 -46.997785 L 164.499058 23.50222 L 93.999052 94.002227 Z M 23.499046 23.502221 " stroke="#424242" stroke-width="47" stroke-opacity="1" stroke-miterlimit="4"/><path stroke-linecap="round" transform="matrix(0.000000001309, -0.75, 0.75, 0.000000001309, 332.728805, 770.358658)" fill-opacity="1" fill="#424242" fill-rule="nonzero" stroke-linejoin="round" d="M 419.363663 23.50222 L 348.863657 -46.997786 L 278.363651 23.50222 L 348.863657 94.002226 Z M 419.363663 23.50222 " stroke="#424242" stroke-width="47" stroke-opacity="1" stroke-miterlimit="4"/><g clip-path="url(#16d526bc96)"><g clip-path="url(#6301d36c83)"><g clip-path="url(#3493e848e9)"><g transform="matrix(1, 0, 0, 1, 631, 477)"><g clip-path="url(#84fcb1dd10)"><g clip-path="url(#b9413fcdb2)"><g clip-path="url(#cc278ddf85)"><g clip-path="url(#7c54a56255)"><path fill="#424242" d="M -6.671875 48.683594 L 48.839844 -6.832031 L 104.355469 48.683594 L 48.839844 104.199219 Z M -6.671875 48.683594 " fill-opacity="1" fill-rule="nonzero"/></g></g></g></g></g></g></g></g><g clip-path="url(#1b20b28547)"><g clip-path="url(#9e1375a4e9)"><g clip-path="url(#b85dbb339d)"><g transform="matrix(1, 0, 0, 1, 646, 332)"><g clip-path="url(#03ddb0c921)"><g clip-path="url(#fff3aa5f37)"><g clip-path="url(#a5941c096c)"><g clip-path="url(#0d668f5c35)"><path fill="#424242" d="M -6.414062 34.234375 L 33.839844 -6.023438 L 74.097656 34.234375 L 33.839844 74.488281 Z M -6.414062 34.234375 " fill-opacity="1" fill-rule="nonzero"/></g></g></g></g></g></g></g></g><g clip-path="url(#ae12543ad3)"><g clip-path="url(#a0c61fb23e)"><g clip-path="url(#f9f76a9e3d)"><g transform="matrix(1, 0, 0, 1, 154, 774)"><g clip-path="url(#a524d83090)"><g clip-path="url(#0ddeb4a8d7)"><g clip-path="url(#4e3dcac7f7)"><g clip-path="url(#390cb6410c)"><path fill="#424242" d="M -6.78125 34.382812 L 33.472656 -5.871094 L 73.730469 34.382812 L 33.472656 74.640625 Z M -6.78125 34.382812 " fill-opacity="1" fill-rule="nonzero"/></g></g></g></g></g></g></g></g><g clip-path="url(#3b819509b9)"><g clip-path="url(#0221d19a62)"><g clip-path="url(#499878ce23)"><g transform="matrix(1, 0, 0, 1, 787, 1091)"><g clip-path="url(#f81c7ab125)"><g clip-path="url(#a756d0b48e)"><g clip-path="url(#8fc405afb8)"><g clip-path="url(#ccb7330413)"><path fill="#424242" d="M -6.832031 33.710938 L 33.421875 -6.542969 L 73.679688 33.710938 L 33.421875 73.96875 Z M -6.832031 33.710938 " fill-opacity="1" fill-rule="nonzero"/></g></g></g></g></g></g></g></g><g clip-path="url(#5138dcb72d)"><g clip-path="url(#f502bb259e)"><g clip-path="url(#e51031dfff)"><g transform="matrix(1, 0, 0, 1, 951, 1182)"><g clip-path="url(#2a21434ce8)"><g clip-path="url(#5ec7d71c23)"><g clip-path="url(#aeb9b27ea1)"><g clip-path="url(#94db69d874)"><path fill="#424242" d="M -6.25 33.925781 L 34.003906 -6.332031 L 74.261719 33.925781 L 34.003906 74.179688 Z M -6.25 33.925781 " fill-opacity="1" fill-rule="nonzero"/></g></g></g></g></g></g></g></g><g clip-path="url(#415b480ff4)"><g clip-path="url(#c12ecbc491)"><g clip-path="url(#e1631a065a)"><g transform="matrix(1, 0, 0, 1, 1113, 241)"><g clip-path="url(#afcc76d96e)"><g clip-path="url(#686f900644)"><g clip-path="url(#17bf067c2c)"><g clip-path="url(#ce74c5b49d)"><path fill="#424242" d="M -6.015625 34.074219 L 34.238281 -6.183594 L 74.496094 34.074219 L 34.238281 74.332031 Z M -6.015625 34.074219 " fill-opacity="1" fill-rule="nonzero"/></g></g></g></g></g></g></g></g><g clip-path="url(#863f2b12ae)"><g clip-path="url(#8c62f32382)"><g clip-path="url(#630c2abe7a)"><g transform="matrix(1, 0, 0, 1, 771, 925)"><g clip-path="url(#b5555ee5f3)"><g clip-path="url(#54c60fcfcc)"><g clip-path="url(#d707d3b2ee)"><g clip-path="url(#794ca1462c)"><path fill="#424242" d="M -6.089844 49.582031 L 49.421875 -5.933594 L 104.9375 49.582031 L 49.421875 105.097656 Z M -6.089844 49.582031 " fill-opacity="1" fill-rule="nonzero"/></g></g></g></g></g></g></g></g><path stroke-linecap="butt" transform="matrix(0, 0.75, -0.75, 0, 1168.871885, 535.822206)" fill="none" stroke-linejoin="miter" d="M 152.747489 23.501057 L 290.112084 23.501057 " stroke="#424242" stroke-width="47" stroke-opacity="1" stroke-miterlimit="4"/><path stroke-linecap="round" transform="matrix(0, 0.75, -0.75, 0, 1168.871885, 535.822206)" fill-opacity="1" fill="#424242" fill-rule="nonzero" stroke-linejoin="round" d="M 23.497478 23.501057 L 93.997484 -46.998949 L 164.49749 23.501057 L 93.997484 94.001063 Z M 23.497478 23.501057 " stroke="#424242" stroke-width="47" stroke-opacity="1" stroke-miterlimit="4"/><path stroke-linecap="round" transform="matrix(0, 0.75, -0.75, 0, 1168.871885, 535.822206)" fill-opacity="1" fill="#424242" fill-rule="nonzero" stroke-linejoin="round" d="M 419.362095 23.501057 L 348.862089 -46.998949 L 278.362083 23.501057 L 348.862089 94.001063 Z M 419.362095 23.501057 " stroke="#424242" stroke-width="47" stroke-opacity="1" stroke-miterlimit="4"/><path stroke-linecap="butt" transform="matrix(0, 0.75, -0.75, 0, 1168.871885, 728.047477)" fill="none" stroke-linejoin="miter" d="M 152.74921 23.501057 L 290.108597 23.501057 " stroke="#424242" stroke-width="47" stroke-opacity="1" stroke-miterlimit="4"/><path stroke-linecap="round" transform="matrix(0, 0.75, -0.75, 0, 1168.871885, 728.047477)" fill-opacity="1" fill="#424242" fill-rule="nonzero" stroke-linejoin="round" d="M 23.499199 23.501057 L 93.999205 -46.998949 L 164.499211 23.501057 L 93.999205 94.001063 Z M 23.499199 23.501057 " stroke="#424242" stroke-width="47" stroke-opacity="1" stroke-miterlimit="4"/><path stroke-linecap="round" transform="matrix(0, 0.75, -0.75, 0, 1168.871885, 728.047477)" fill-opacity="1" fill="#424242" fill-rule="nonzero" stroke-linejoin="round" d="M 419.358608 23.501057 L 348.858602 -46.998949 L 278.358596 23.501057 L 348.858602 94.001063 Z M 419.358608 23.501057 " stroke="#424242" stroke-width="47" stroke-opacity="1" stroke-miterlimit="4"/><path stroke-linecap="butt" transform="matrix(0.000000001309, -0.75, 0.75, 0.000000001309, 802.796796, 867.966697)" fill="none" stroke-linejoin="miter" d="M 152.752485 23.500107 L 290.111871 23.500107 " stroke="#10b981" stroke-width="47" stroke-opacity="1" stroke-miterlimit="4"/><path stroke-linecap="round" transform="matrix(0.000000001309, -0.75, 0.75, 0.000000001309, 802.796796, 867.966697)" fill-opacity="1" fill="#10b981" fill-rule="nonzero" stroke-linejoin="round" d="M 23.502473 23.500107 L 94.002479 -46.999899 L 164.502486 23.500107 L 94.00248 94.000113 Z M 23.502473 23.500107 " stroke="#10b981" stroke-width="47" stroke-opacity="1" stroke-miterlimit="4"/><path stroke-linecap="round" transform="matrix(0.000000001309, -0.75, 0.75, 0.000000001309, 802.796796, 867.966697)" fill-opacity="1" fill="#10b981" fill-rule="nonzero" stroke-linejoin="round" d="M 419.361882 23.500106 L 348.861876 -46.9999 L 278.36187 23.500107 L 348.861877 94.000113 Z M 419.361882 23.500106 " stroke="#10b981" stroke-width="47" stroke-opacity="1" stroke-miterlimit="4"/><path stroke-linecap="butt" transform="matrix(0.000000001309, -0.75, 0.75, 0.000000001309, 662.214696, 960.334049)" fill="none" stroke-linejoin="miter" d="M 152.747496 23.500198 L 290.112091 23.500198 " stroke="#10b981" stroke-width="47" stroke-opacity="1" stroke-miterlimit="4"/><path stroke-linecap="round" transform="matrix(0.000000001309, -0.75, 0.75, 0.000000001309, 662.214696, 960.334049)" fill-opacity="1" fill="#10b981" fill-rule="nonzero" stroke-linejoin="round" d="M 23.497484 23.500199 L 93.99749 -46.999808 L 164.497497 23.500198 L 93.997491 94.000205 Z M 23.497484 23.500199 " stroke="#10b981" stroke-width="47" stroke-opacity="1" stroke-miterlimit="4"/><path stroke-linecap="round" transform="matrix(0.000000001309, -0.75, 0.75, 0.000000001309, 662.214696, 960.334049)" fill-opacity="1" fill="#10b981" fill-rule="nonzero" stroke-linejoin="round" d="M 419.362102 23.500198 L 348.862096 -46.999808 L 278.36209 23.500198 L 348.862096 94.000204 Z M 419.362102 23.500198 " stroke="#10b981" stroke-width="47" stroke-opacity="1" stroke-miterlimit="4"/><path stroke-linecap="butt" transform="matrix(0.000000001309, -0.75, 0.75, 0.000000001309, 502.345646, 681.808409)" fill="none" stroke-linejoin="miter" d="M 110.499764 16.997473 L 276.036236 16.997473 " stroke="#10b981" stroke-width="34" stroke-opacity="1" stroke-miterlimit="4"/><path stroke-linecap="round" transform="matrix(0.000000001309, -0.75, 0.75, 0.000000001309, 502.345646, 681.808409)" fill-opacity="1" fill="#10b981" fill-rule="nonzero" stroke-linejoin="round" d="M 16.999756 16.997473 L 67.99976 -34.002531 L 118.999764 16.997473 L 67.99976 67.997478 Z M 16.999756 16.997473 " stroke="#10b981" stroke-width="34" stroke-opacity="1" stroke-miterlimit="4"/><path stroke-linecap="round" transform="matrix(0.000000001309, -0.75, 0.75, 0.000000001309, 502.345646, 681.808409)" fill-opacity="1" fill="#10b981" fill-rule="nonzero" stroke-linejoin="round" d="M 369.536244 16.997473 L 318.53624 -34.002532 L 267.536235 16.997473 L 318.53624 67.997477 Z M 369.536244 16.997473 " stroke="#10b981" stroke-width="34" stroke-opacity="1" stroke-miterlimit="4"/><g clip-path="url(#c42e3d0431)"><g clip-path="url(#b48896dd4e)"><g clip-path="url(#b839419143)"><g transform="matrix(1, 0, 0, 1, 444, 559)"><g clip-path="url(#cf028944b3)"><g clip-path="url(#021d18d9bb)"><g clip-path="url(#e11a56c258)"><g clip-path="url(#a974e49296)"><path fill="#424242" d="M 149.625 71.4375 L 71.847656 149.214844 L -5.929688 71.4375 L 71.847656 -6.335938 Z M 149.625 71.4375 " fill-opacity="1" fill-rule="nonzero"/></g></g></g></g></g></g></g></g><g clip-path="url(#fe4f9a7cd5)"><g clip-path="url(#daedba40d3)"><g clip-path="url(#e5a5d0294f)"><g transform="matrix(1, 0, 0, 1, 482, 241)"><g clip-path="url(#e263d49a2c)"><g clip-path="url(#0259b16abb)"><g clip-path="url(#ab7c51359a)"><g clip-path="url(#a9bf999300)"><path fill="#10b981" d="M -6.410156 34.074219 L 33.847656 -6.183594 L 74.105469 34.074219 L 33.847656 74.332031 Z M -6.410156 34.074219 " fill-opacity="1" fill-rule="nonzero"/></g></g></g></g></g></g></g></g><g clip-path="url(#5629853af4)"><g clip-path="url(#1d21ae2452)"><g clip-path="url(#eda825eccc)"><g transform="matrix(1, 0, 0, 1, 316, 1182)"><g clip-path="url(#6cb3b6c85c)"><g clip-path="url(#2703af735e)"><g clip-path="url(#035897c38e)"><g clip-path="url(#b5175ae426)"><path fill="#10b981" d="M -5.902344 33.925781 L 34.355469 -6.332031 L 74.609375 33.925781 L 34.355469 74.179688 Z M -5.902344 33.925781 " fill-opacity="1" fill-rule="nonzero"/></g></g></g></g></g></g></g></g><g clip-path="url(#d0b7c12b8b)"><g clip-path="url(#448e460a2c)"><g clip-path="url(#2fbee6a0f9)"><g transform="matrix(1, 0, 0, 1, 1279, 658)"><g clip-path="url(#86eb4c9ec3)"><g clip-path="url(#02106c70ee)"><g clip-path="url(#7fd673ca3f)"><g clip-path="url(#2bdb6c829a)"><path fill="#10b981" d="M -6.421875 34.308594 L 33.832031 -5.945312 L 74.089844 34.308594 L 33.832031 74.566406 Z M -6.421875 34.308594 " fill-opacity="1" fill-rule="nonzero"/></g></g></g></g></g></g></g></g><g clip-path="url(#1bf99ab423)"><g clip-path="url(#7735dedbcf)"><g clip-path="url(#15f78c5f7c)"><g transform="matrix(1, 0, 0, 1, 1102, 380)"><g clip-path="url(#3ef6ec45d5)"><g clip-path="url(#9749a4674d)"><g clip-path="url(#637579bbdb)"><g clip-path="url(#d0656461ec)"><path fill="#10b981" d="M -6.265625 49.210938 L 49.25 -6.304688 L 104.761719 49.210938 L 49.25 104.726562 Z M -6.265625 49.210938 " fill-opacity="1" fill-rule="nonzero"/></g></g></g></g></g></g></g></g><path stroke-linecap="butt" transform="matrix(0, 0.75, -0.75, 0, 998.502955, 827.156045)" fill="none" stroke-linejoin="miter" d="M 110.500283 16.998734 L 276.036756 16.998734 " stroke="#10b981" stroke-width="34" stroke-opacity="1" stroke-miterlimit="4"/><path stroke-linecap="round" transform="matrix(0, 0.75, -0.75, 0, 998.502955, 827.156045)" fill-opacity="1" fill="#10b981" fill-rule="nonzero" stroke-linejoin="round" d="M 17.000275 16.998734 L 68.00028 -34.001271 L 119.000284 16.998734 L 68.00028 67.998738 Z M 17.000275 16.998734 " stroke="#10b981" stroke-width="34" stroke-opacity="1" stroke-miterlimit="4"/><path stroke-linecap="round" transform="matrix(0, 0.75, -0.75, 0, 998.502955, 827.156045)" fill-opacity="1" fill="#10b981" fill-rule="nonzero" stroke-linejoin="round" d="M 369.536764 16.998734 L 318.536759 -34.001271 L 267.536755 16.998734 L 318.536759 67.998738 Z M 369.536764 16.998734 " stroke="#10b981" stroke-width="34" stroke-opacity="1" stroke-miterlimit="4"/><g clip-path="url(#b1fd01cd37)"><g clip-path="url(#669f10c530)"><g clip-path="url(#433004ba9c)"><g transform="matrix(1, 0, 0, 1, 914, 811)"><g clip-path="url(#0537fa40c8)"><g clip-path="url(#e64cfabe7f)"><g clip-path="url(#68f7f0d434)"><g clip-path="url(#24b485555c)"><path fill="#10b981" d="M 148.78125 71.558594 L 71.003906 149.335938 L -6.773438 71.558594 L 71.003906 -6.21875 Z M 148.78125 71.558594 " fill-opacity="1" fill-rule="nonzero"/></g></g></g></g></g></g></g></g><g clip-path="url(#77cb81bb50)"><g clip-path="url(#054926f192)"><g clip-path="url(#406a0ada21)"><g transform="matrix(1, 0, 0, 1, 301, 1020)"><g clip-path="url(#c1f584c4f7)"><g clip-path="url(#32f240b765)"><g clip-path="url(#38c1bd2cd0)"><g clip-path="url(#4c3e7f14e5)"><path fill="#10b981" d="M -6.160156 49.195312 L 49.355469 -6.320312 L 104.871094 49.195312 L 49.355469 104.710938 Z M -6.160156 49.195312 " fill-opacity="1" fill-rule="nonzero"/></g></g></g></g></g></g></g></g><g clip-path="url(#e6f921497f)"><g clip-path="url(#3c1caa9274)"><g clip-path="url(#f51512efac)"><g transform="matrix(1, 0, 0, 1, 1080, 535)"><g clip-path="url(#5b07dc0e8c)"><g clip-path="url(#e4f01b392d)"><g clip-path="url(#2065620347)"><g clip-path="url(#3a1677d3c8)"><path fill="#10b981" d="M 149.023438 71.386719 L 71.246094 149.164062 L -6.527344 71.386719 L 71.246094 -6.390625 Z M 149.023438 71.386719 " fill-opacity="1" fill-rule="nonzero"/></g></g></g></g></g></g></g></g><g clip-path="url(#1728e4820c)"><g clip-path="url(#80bd7c0628)"><g clip-path="url(#775909e322)"><g transform="matrix(1, 0, 0, 1, 279, 821)"><g clip-path="url(#bcca0ca915)"><g clip-path="url(#ee3cc891d7)"><g clip-path="url(#fb7e7680cc)"><g clip-path="url(#76d4cee497)"><path fill="#10b981" d="M 149.128906 71.023438 L 71.355469 148.796875 L -6.421875 71.023438 L 71.355469 -6.753906 Z M 149.128906 71.023438 " fill-opacity="1" fill-rule="nonzero"/></g></g></g></g></g></g></g></g></svg>