<?xml version="1.0" standalone="no"?>
<!DOCTYPE svg PUBLIC "-//W3C//DTD SVG 20010904//EN"
 "http://www.w3.org/TR/2001/REC-SVG-20010904/DTD/svg10.dtd">
<svg version="1.0" xmlns="http://www.w3.org/2000/svg"
 width="2000.000000pt" height="2000.000000pt" viewBox="0 0 2000.000000 2000.000000"
 preserveAspectRatio="xMidYMid meet">

<g transform="translate(0.000000,2000.000000) scale(0.100000,-0.100000)"
fill="#000000" stroke="none">
<path d="M6816 16766 c-42 -12 -67 -32 -202 -167 -140 -139 -156 -159 -170
-207 -18 -60 -13 -105 16 -162 27 -51 287 -306 332 -325 49 -20 131 -19 176 2
49 22 310 287 333 338 23 49 24 123 4 172 -19 45 -275 307 -325 333 -50 25
-108 31 -164 16z"/>
<path d="M15260 14904 c-20 -9 -134 -114 -274 -252 -253 -251 -286 -295 -286
-377 1 -80 29 -117 278 -367 253 -253 286 -278 372 -278 87 0 119 24 372 280
130 131 244 253 253 270 9 17 19 52 22 79 10 91 -11 121 -280 389 -157 156
-255 246 -279 256 -47 20 -132 20 -178 0z"/>
<path d="M6815 14769 c-32 -9 -586 -554 -611 -601 -18 -34 -18 -99 0 -141 8
-18 122 -140 255 -272 l241 -240 0 -529 0 -528 37 28 c88 67 198 71 273 8 l30
-26 0 524 0 523 236 235 c238 236 274 282 274 345 0 65 -36 108 -316 387 -232
229 -286 278 -319 287 -46 13 -59 13 -100 0z"/>
<path d="M10850 12839 c-67 -30 -793 -754 -826 -824 -29 -61 -31 -134 -5 -190
12 -26 134 -154 350 -370 l331 -330 0 -480 0 -480 -334 -335 c-234 -234 -339
-347 -350 -374 -21 -52 -20 -132 3 -181 26 -56 782 -809 833 -830 21 -8 57
-15 80 -15 103 0 95 -6 511 408 213 213 397 402 409 420 11 18 22 58 25 90 10
108 2 118 -372 492 l-335 335 0 469 0 470 344 345 c361 364 366 369 366 456 0
88 0 89 -418 509 -264 265 -410 404 -437 417 -52 24 -119 24 -175 -2z"/>
<path d="M15277 12846 c-20 -7 -57 -30 -80 -49 -83 -68 -762 -769 -776 -800
-18 -43 -17 -124 2 -167 9 -21 172 -193 404 -427 414 -419 430 -433 523 -433
92 0 110 15 523 433 221 223 395 407 403 426 20 44 20 131 -1 173 -21 44 -780
811 -824 833 -46 23 -128 28 -174 11z"/>
<path d="M8995 11615 c-22 -8 -42 -15 -45 -15 -15 0 -785 -782 -803 -815 -31
-59 -29 -148 6 -206 14 -24 172 -190 351 -369 l326 -325 0 -475 0 -475 -331
-330 c-186 -186 -340 -347 -352 -370 -24 -46 -27 -120 -8 -180 11 -32 90 -117
400 -428 251 -253 400 -394 427 -407 49 -24 139 -26 192 -5 52 22 795 764 823
823 28 57 28 145 1 198 -12 22 -166 184 -351 369 l-331 330 0 475 0 475 335
335 c236 237 339 347 351 375 21 51 21 143 -1 186 -23 46 -770 795 -818 820
-52 27 -122 33 -172 14z"/>
<path d="M17415 11194 c-48 -24 -315 -294 -336 -339 -10 -22 -19 -60 -19 -86
0 -78 36 -133 189 -282 122 -119 145 -137 192 -151 44 -14 64 -14 109 -5 53
11 61 17 208 163 85 83 160 163 168 178 22 41 28 108 14 158 -10 38 -35 68
-163 197 -83 84 -165 159 -183 168 -41 19 -140 19 -179 -1z"/>
<path d="M13084 9171 c-18 -5 -47 -17 -65 -29 -61 -38 -797 -784 -814 -824
-20 -50 -19 -124 4 -173 13 -26 146 -166 390 -410 l371 -370 0 -499 0 -499
-245 -248 c-262 -267 -274 -284 -259 -366 8 -43 126 -174 416 -460 148 -146
179 -173 218 -183 88 -23 95 -18 408 293 156 155 290 294 298 309 17 32 19
110 3 141 -6 12 -121 132 -255 267 l-244 246 0 505 0 504 365 365 c401 400
413 416 402 511 -3 27 -13 63 -23 81 -20 42 -778 801 -819 821 -39 19 -111 27
-151 18z"/>
<path d="M4601 9043 c-27 -5 -773 -731 -829 -807 -29 -40 -37 -60 -40 -108 -8
-109 -12 -104 430 -544 370 -368 407 -402 450 -414 52 -14 114 -8 157 15 14 7
207 195 428 417 l401 403 11 55 c12 63 4 112 -27 162 -12 18 -195 207 -409
419 -327 326 -394 389 -428 398 -40 11 -98 12 -144 4z"/>
<path d="M4590 6378 c-26 -7 -97 -72 -281 -256 -136 -136 -255 -263 -265 -282
-28 -56 -25 -145 8 -200 37 -63 485 -505 531 -525 47 -19 127 -19 175 1 24 10
122 99 276 252 253 251 286 295 286 377 0 83 -33 125 -291 381 -200 199 -251
244 -284 253 -48 13 -107 13 -155 -1z"/>
<path d="M4605 4223 c-11 -3 -38 -18 -60 -33 -59 -41 -278 -269 -298 -312 -21
-45 -22 -127 -2 -176 20 -47 275 -306 330 -334 54 -28 136 -28 190 0 22 11
106 87 186 169 136 137 147 152 157 198 11 53 4 114 -18 155 -19 36 -258 278
-304 307 -40 26 -135 39 -181 26z"/>
</g>
</svg>
